<svg width="1051" height="1015" viewBox="0 0 1051 1015" fill="none" xmlns="http://www.w3.org/2000/svg">
<mask id="mask0_104_106" style="mask-type:alpha" maskUnits="userSpaceOnUse" x="12" y="0" width="1001" height="1000">
<rect x="12.9995" width="1000" height="1000" fill="white"/>
</mask>
<g mask="url(#mask0_104_106)">
<path d="M141.5 936.5C-11.5005 922 -102.518 949.539 -136.518 974.539C-140.351 974.539 -145.618 991.339 -182.018 1058.54C-227.518 1142.54 57.4823 961.539 -91.0177 1084.54C-239.518 1207.54 502.5 1070.5 596 1094C689.5 1117.5 532.517 967 408.5 936.5C343.858 920.603 322.108 953.617 141.5 936.5Z" fill="#6BCEFC" stroke="#73BBE8" stroke-linecap="round"/>
<path d="M372.198 966.981C408.801 947.917 451.631 987.634 468.471 1009.87C481.456 1024.3 478.965 1032.41 476.097 1034.66L318.818 1057.54L33.8107 1073.74L1.40186 1009.87L14.7467 983.185C118.646 985.727 335.595 986.045 372.198 966.981Z" fill="#0FB0FA"/>
</g>
<circle cx="94.9995" cy="325" r="75" fill="#D9D9D9"/>
<circle cx="94.9995" cy="325" r="55" fill="#D1D1D1"/>
<rect x="154.171" y="216.851" width="56" height="100" rx="2" transform="rotate(158.287 154.171 216.851)" fill="#00730D"/>
<rect x="157.888" y="215.372" width="50" height="100" rx="2" transform="rotate(158.287 157.888 215.372)" fill="#C4CE02"/>
<mask id="mask1_104_106" style="mask-type:alpha" maskUnits="userSpaceOnUse" x="75" y="123" width="83" height="111">
<rect x="157.888" y="215.372" width="50" height="100" rx="2" transform="rotate(158.287 157.888 215.372)" fill="#C4CE02"/>
</mask>
<g mask="url(#mask1_104_106)">
<circle cx="145.398" cy="221.634" r="9" transform="rotate(174.864 145.398 221.634)" fill="#B7C103"/>
<circle cx="109.095" cy="219.876" r="9" transform="rotate(174.864 109.095 219.876)" fill="#B7C103"/>
<circle cx="127.134" cy="197.17" r="9" transform="rotate(174.864 127.134 197.17)" fill="#B7C103"/>
<circle cx="135.673" cy="169.294" r="9" transform="rotate(174.864 135.673 169.294)" fill="#B7C103"/>
<circle cx="104.44" cy="168.085" r="9" transform="rotate(174.864 104.44 168.085)" fill="#B7C103"/>
<circle cx="97.8034" cy="194.787" r="9" transform="rotate(174.864 97.8034 194.787)" fill="#B7C103"/>
<circle cx="80.29" cy="145.155" r="9" transform="rotate(174.864 80.29 145.155)" fill="#B7C103"/>
<circle cx="115.149" cy="142.022" r="9" transform="rotate(174.864 115.149 142.022)" fill="#B7C103"/>
</g>
<path d="M413.473 621.224C284.965 552.032 234.972 124.224 127.972 172.224" stroke="#96CDEE" stroke-width="60" stroke-linecap="round"/>
<path d="M451.472 621.224C318.053 680.392 60.4719 467.724 60.4719 367.224" stroke="#96CDEE" stroke-width="60" stroke-linecap="round"/>
<path d="M492.473 621.224C371.284 702.556 -72.5286 766.224 114.972 621.224" stroke="#96CDEE" stroke-width="60" stroke-linecap="round"/>
<path d="M513.472 621.224C437.306 745.724 470.472 906.224 344.972 779.224" stroke="#96CDEE" stroke-width="60" stroke-linecap="round"/>
<path d="M613.472 621.447C741.98 552.256 791.973 124.447 898.973 172.447" stroke="#96CDEE" stroke-width="60" stroke-linecap="round"/>
<path d="M575.473 621.447C708.892 680.616 853.972 284.447 952.972 460.947" stroke="#96CDEE" stroke-width="60" stroke-linecap="round"/>
<path d="M534.472 621.447C655.661 702.779 984.972 565 962.472 711.724" stroke="#96CDEE" stroke-width="60" stroke-linecap="round"/>
<path d="M513.472 621.447C589.639 745.947 881 785.5 658.5 929" stroke="#96CDEE" stroke-width="60" stroke-linecap="round"/>
<path d="M95.2077 554L138.88 888.376" stroke="#A23923" stroke-width="10" stroke-linecap="round"/>
<rect x="31" y="909.463" width="243.834" height="32.5112" rx="5" transform="rotate(-0.34381 31 909.463)" fill="url(#paint0_linear_104_106)"/>
<rect x="30.8701" y="885.892" width="243.834" height="32.5112" rx="5" transform="rotate(-0.34381 30.8701 885.892)" fill="#A23923"/>
<path d="M73.3623 689.459C73.3623 689.459 53.0745 657.65 113.858 621.375" stroke="#96CDEE" stroke-width="60" stroke-linecap="round"/>
<path d="M738 309C738 433.264 637.265 534 513 534C388.736 534 288 433.264 288 309C288 184.736 388.736 84 513 84C637.265 84 738 184.736 738 309Z" fill="#96CDEE"/>
<path d="M377.5 534L304.873 317.701C298.956 298.415 313.41 279 333.584 279H692.417C712.591 279 727.045 298.415 721.128 317.701L651.5 534C647.634 546.6 607.179 601 594 601H433.5C420.32 601 381.365 546.6 377.5 534Z" fill="#96CDEE"/>
<path d="M738 309C738 433.264 637.265 534 513 534C388.736 534 288 433.264 288 309C288 184.736 388.736 84 513 84C637.265 84 738 184.736 738 309Z" stroke="#DA07B3"/>
<path d="M377.5 534L304.873 317.701C298.956 298.415 313.41 279 333.584 279H692.417C712.591 279 727.045 298.415 721.128 317.701L651.5 534C647.634 546.6 607.179 601 594 601H433.5C420.32 601 381.365 546.6 377.5 534Z" stroke="#DA07B3"/>
<g filter="url(#filter0_f_104_106)">
<path d="M389 557.5C398.512 571 419.838 598.6 429.049 601H594.754C617.982 587.8 653.826 535.5 650.823 532" stroke="#96CDEE" stroke-width="151"/>
</g>
<path fill-rule="evenodd" clip-rule="evenodd" d="M513.001 83.5C637.541 83.5003 738.501 184.46 738.501 309C738.501 370.762 713.671 426.725 673.448 467.451L651.977 534.153C650.984 537.384 647.69 543.2 643.155 550.06C638.604 556.945 632.763 564.94 626.632 572.539C620.502 580.136 614.072 587.35 608.341 592.67C605.477 595.329 602.775 597.525 600.365 599.06C597.972 600.583 595.796 601.5 594 601.5H433.5C431.703 601.5 429.55 600.582 427.196 599.058C424.826 597.522 422.183 595.324 419.389 592.665C413.798 587.345 407.555 580.13 401.613 572.533C395.669 564.934 390.017 556.939 385.606 550.054C381.215 543.197 378.02 537.386 377.026 534.159L355.664 470.54C313.615 429.579 287.501 372.339 287.501 309C287.501 184.46 388.461 83.5 513.001 83.5Z" fill="#96CDEE"/>
<path d="M515.25 486.5C563.845 486.884 575.104 443.883 577.713 423.935C578.429 418.459 574.023 414 568.5 414H515.25H462C456.477 414 452.072 418.459 452.803 423.933C455.442 443.702 466.755 486.117 515.25 486.5Z" fill="black"/>
<mask id="mask2_104_106" style="mask-type:alpha" maskUnits="userSpaceOnUse" x="452" y="414" width="126" height="73">
<path d="M515.25 486.5C563.845 486.884 575.104 443.883 577.713 423.935C578.429 418.459 574.023 414 568.5 414H515.25H462C456.477 414 452.072 418.459 452.803 423.933C455.442 443.702 466.755 486.117 515.25 486.5Z" fill="black"/>
</mask>
<g mask="url(#mask2_104_106)">
<path d="M514.696 443.058C472.666 443.567 461.194 469.566 458.068 484.293C456.921 489.695 461.378 494.122 466.9 494.023L515.597 493.146L564.294 492.27C569.816 492.171 574.108 487.589 572.744 482.237C569.057 467.775 556.617 442.55 514.696 443.058Z" fill="#AA0A0A"/>
</g>
<circle cx="402" cy="309" r="50" fill="white"/>
<circle cx="624" cy="309" r="50" fill="white"/>
<circle cx="624" cy="309" r="25" fill="black"/>
<circle cx="402" cy="309" r="25" fill="black"/>
<path d="M356 233C394.34 215.735 410.59 215.599 448 233" stroke="#73BBE8" stroke-width="10" stroke-linecap="round"/>
<path d="M578 233C616.756 215.735 633.183 215.599 671 233" stroke="#73BBE8" stroke-width="10" stroke-linecap="round"/>
<path d="M352 337H452V370H352V337Z" fill="#96CDEE"/>
<path d="M574 337H674V370H574V337Z" fill="#96CDEE"/>
<g filter="url(#filter1_f_104_106)">
<path d="M391.5 561.5C374.5 543.5 330.5 454.5 330.5 454.5" stroke="#96CDEE" stroke-width="9"/>
</g>
<g filter="url(#filter2_f_104_106)">
<path d="M653.5 543C663.5 523.5 695 461.5 695 461.5" stroke="#96CDEE" stroke-width="9"/>
</g>
<path d="M932.613 492.753L968.99 451.5C972.642 447.358 978.962 446.961 983.104 450.614L995.48 461.527C999.622 465.179 1000.02 471.499 996.366 475.641L959.99 516.894C956.337 521.036 950.018 521.433 945.876 517.78L933.5 506.867C929.358 503.214 928.961 496.895 932.613 492.753Z" fill="#FF8CF2" stroke="#FF82F0" stroke-width="10" stroke-linecap="round"/>
<path opacity="0.2" d="M959.058 494.76L957.34 493.257C957.207 493.14 957.101 493.084 957.022 493.09C956.949 493.088 956.851 493.157 956.728 493.298L954.165 496.227C953.679 496.781 953.159 496.816 952.604 496.33L950.708 494.671C950.153 494.185 950.118 493.665 950.604 493.11L953.932 489.307C954.418 488.752 954.938 488.717 955.493 489.203L956.62 490.19L955.376 491.612L954.364 490.727C954.224 490.604 954.118 490.548 954.046 490.559C953.973 490.558 953.875 490.627 953.752 490.767L952.028 492.738C951.911 492.871 951.855 492.977 951.86 493.056C951.859 493.129 951.928 493.227 952.068 493.35L953.733 494.807C953.873 494.93 953.983 494.989 954.062 494.983C954.134 494.972 954.229 494.899 954.345 494.766L956.899 491.848C957.385 491.293 957.905 491.258 958.46 491.744L960.409 493.45C960.964 493.935 960.999 494.455 960.513 495.01L957.185 498.813C956.699 499.368 956.179 499.403 955.624 498.917L954.497 497.931L955.732 496.519L956.743 497.404C956.884 497.527 956.994 497.586 957.073 497.581C957.145 497.569 957.239 497.497 957.356 497.363L959.098 495.372C959.221 495.232 959.281 495.129 959.276 495.063C959.271 494.984 959.198 494.883 959.058 494.76ZM965.219 487.719L962.006 484.907C961.873 484.791 961.766 484.735 961.687 484.74C961.614 484.738 961.516 484.808 961.394 484.948L959.78 486.792C959.663 486.925 959.607 487.031 959.613 487.11C959.618 487.189 959.687 487.287 959.821 487.404L963.034 490.216C963.175 490.339 963.284 490.398 963.363 490.393C963.435 490.381 963.53 490.309 963.646 490.175L965.26 488.332C965.383 488.191 965.442 488.088 965.438 488.022C965.433 487.943 965.36 487.842 965.219 487.719ZM958.421 487.091L961.51 483.561C961.995 483.006 962.515 482.972 963.07 483.457L966.515 486.472C967.07 486.958 967.105 487.478 966.619 488.033L963.53 491.562C963.045 492.117 962.525 492.152 961.97 491.666L958.525 488.651C957.97 488.166 957.935 487.645 958.421 487.091ZM969.777 483.171L971.307 481.422C971.424 481.289 971.482 481.172 971.482 481.073C971.475 480.968 971.408 480.86 971.282 480.749L968.111 477.974C967.985 477.863 967.872 477.815 967.774 477.828C967.668 477.835 967.557 477.905 967.441 478.038L965.91 479.787C965.787 479.928 965.728 480.037 965.734 480.116C965.745 480.188 965.817 480.283 965.951 480.4L969.164 483.212C969.305 483.335 969.411 483.397 969.484 483.399C969.556 483.387 969.654 483.311 969.777 483.171ZM967.142 477.126L968.331 475.767L973.441 480.238L972.251 481.597L971.925 481.312C972.069 481.586 972.005 481.878 971.735 482.187L969.651 484.568C969.166 485.123 968.645 485.158 968.091 484.672L964.646 481.657C964.091 481.172 964.056 480.651 964.542 480.097L966.625 477.716C966.896 477.407 967.177 477.305 967.468 477.412L967.142 477.126ZM977.616 473.554L974.403 470.742C974.27 470.625 974.164 470.569 974.085 470.574C974.012 470.572 973.914 470.642 973.791 470.782L972.187 472.615C971.971 472.861 971.983 473.089 972.222 473.298L975.383 476.064C975.614 476.267 975.838 476.245 976.053 475.999L977.657 474.166C977.78 474.026 977.839 473.922 977.835 473.857C977.83 473.778 977.757 473.677 977.616 473.554ZM971.759 471.85L973.916 469.385C974.402 468.83 974.922 468.795 975.477 469.281L978.922 472.296C979.477 472.782 979.511 473.302 979.026 473.857L976.868 476.322C976.598 476.631 976.317 476.732 976.025 476.626L977.837 478.212L976.648 479.571L970.053 473.799L971.233 472.451L971.602 472.773C971.43 472.474 971.482 472.166 971.759 471.85Z" fill="white"/>
<circle cx="977.5" cy="446.5" r="12.5" fill="#ADF1FF" stroke="white" stroke-width="2"/>
<circle cx="931.5" cy="509.5" r="12.5" fill="#ADF1FF" stroke="white" stroke-width="2"/>
<circle cx="978.5" cy="456.5" r="12.5" fill="#ADF1FF" stroke="white" stroke-width="2"/>
<circle cx="932.5" cy="519.5" r="12.5" fill="#ADF1FF" stroke="white" stroke-width="2"/>
<circle cx="996.5" cy="451.5" r="12.5" fill="#ADF1FF" stroke="white" stroke-width="2"/>
<circle cx="950.5" cy="514.5" r="12.5" fill="#ADF1FF" stroke="white" stroke-width="2"/>
<circle cx="991.5" cy="463.5" r="12.5" fill="#ADF1FF" stroke="white" stroke-width="2"/>
<circle cx="959.5" cy="461.5" r="12.5" fill="#ADF1FF" stroke="white" stroke-width="2"/>
<circle cx="945.5" cy="526.5" r="12.5" fill="#ADF1FF" stroke="white" stroke-width="2"/>
<circle cx="962.5" cy="517.5" r="12.5" fill="#ADF1FF" stroke="white" stroke-width="2"/>
<path opacity="0.2" d="M959.058 494.76L957.34 493.257C957.207 493.14 957.101 493.084 957.022 493.09C956.949 493.088 956.851 493.157 956.728 493.298L954.165 496.227C953.679 496.781 953.159 496.816 952.604 496.33L950.708 494.671C950.153 494.185 950.118 493.665 950.604 493.11L953.932 489.307C954.418 488.752 954.938 488.717 955.493 489.203L956.62 490.19L955.376 491.612L954.364 490.727C954.224 490.604 954.118 490.548 954.046 490.559C953.973 490.558 953.875 490.627 953.752 490.767L952.028 492.738C951.911 492.871 951.855 492.977 951.86 493.056C951.859 493.129 951.928 493.227 952.068 493.35L953.733 494.807C953.873 494.93 953.983 494.989 954.062 494.983C954.134 494.972 954.229 494.899 954.345 494.766L956.899 491.848C957.385 491.293 957.905 491.258 958.46 491.744L960.409 493.45C960.964 493.935 960.999 494.455 960.513 495.01L957.185 498.813C956.699 499.368 956.179 499.403 955.624 498.917L954.497 497.931L955.732 496.519L956.743 497.404C956.884 497.527 956.994 497.586 957.073 497.581C957.145 497.569 957.239 497.497 957.356 497.363L959.098 495.372C959.221 495.232 959.281 495.129 959.276 495.063C959.271 494.984 959.198 494.883 959.058 494.76ZM965.219 487.719L962.006 484.907C961.873 484.791 961.766 484.735 961.687 484.74C961.614 484.738 961.516 484.808 961.394 484.948L959.78 486.792C959.663 486.925 959.607 487.031 959.613 487.11C959.618 487.189 959.687 487.287 959.821 487.404L963.034 490.216C963.175 490.339 963.284 490.398 963.363 490.393C963.435 490.381 963.53 490.309 963.646 490.175L965.26 488.332C965.383 488.191 965.442 488.088 965.438 488.022C965.433 487.943 965.36 487.842 965.219 487.719ZM958.421 487.091L961.51 483.561C961.995 483.006 962.515 482.972 963.07 483.457L966.515 486.472C967.07 486.958 967.105 487.478 966.619 488.033L963.53 491.562C963.045 492.117 962.525 492.152 961.97 491.666L958.525 488.651C957.97 488.166 957.935 487.645 958.421 487.091ZM969.777 483.171L971.307 481.422C971.424 481.289 971.482 481.172 971.482 481.073C971.475 480.968 971.408 480.86 971.282 480.749L968.111 477.974C967.985 477.863 967.872 477.815 967.774 477.828C967.668 477.835 967.557 477.905 967.441 478.038L965.91 479.787C965.787 479.928 965.728 480.037 965.734 480.116C965.745 480.188 965.817 480.283 965.951 480.4L969.164 483.212C969.305 483.335 969.411 483.397 969.484 483.399C969.556 483.387 969.654 483.311 969.777 483.171ZM967.142 477.126L968.331 475.767L973.441 480.238L972.251 481.597L971.925 481.312C972.069 481.586 972.005 481.878 971.735 482.187L969.651 484.568C969.166 485.123 968.645 485.158 968.091 484.672L964.646 481.657C964.091 481.172 964.056 480.651 964.542 480.097L966.625 477.716C966.896 477.407 967.177 477.305 967.468 477.412L967.142 477.126ZM977.616 473.554L974.403 470.742C974.27 470.625 974.164 470.569 974.085 470.574C974.012 470.572 973.914 470.642 973.791 470.782L972.187 472.615C971.971 472.861 971.983 473.089 972.222 473.298L975.383 476.064C975.614 476.267 975.838 476.245 976.053 475.999L977.657 474.166C977.78 474.026 977.839 473.922 977.835 473.857C977.83 473.778 977.757 473.677 977.616 473.554ZM971.759 471.85L973.916 469.385C974.402 468.83 974.922 468.795 975.477 469.281L978.922 472.296C979.477 472.782 979.511 473.302 979.026 473.857L976.868 476.322C976.598 476.631 976.317 476.732 976.025 476.626L977.837 478.212L976.648 479.571L970.053 473.799L971.233 472.451L971.602 472.773C971.43 472.474 971.482 472.166 971.759 471.85Z" fill="white"/>
<circle cx="977.5" cy="446.5" r="12.5" fill="#ADF1FF" stroke="white" stroke-width="2"/>
<circle cx="931.5" cy="509.5" r="12.5" fill="#ADF1FF" stroke="white" stroke-width="2"/>
<circle cx="978.5" cy="456.5" r="12.5" fill="#ADF1FF" stroke="white" stroke-width="2"/>
<circle cx="932.5" cy="519.5" r="12.5" fill="#ADF1FF" stroke="white" stroke-width="2"/>
<circle cx="996.5" cy="451.5" r="12.5" fill="#ADF1FF" stroke="white" stroke-width="2"/>
<circle cx="950.5" cy="514.5" r="12.5" fill="#ADF1FF" stroke="white" stroke-width="2"/>
<circle cx="991.5" cy="463.5" r="12.5" fill="#ADF1FF" stroke="white" stroke-width="2"/>
<circle cx="959.5" cy="461.5" r="12.5" fill="#ADF1FF" stroke="white" stroke-width="2"/>
<circle cx="70.4995" cy="269.5" r="12.5" fill="#ADF1FF" stroke="white" stroke-width="2"/>
<circle cx="71.4995" cy="279.5" r="12.5" fill="#ADF1FF" stroke="white" stroke-width="2"/>
<circle cx="89.4995" cy="274.5" r="12.5" fill="#ADF1FF" stroke="white" stroke-width="2"/>
<circle cx="84.4995" cy="286.5" r="12.5" fill="#ADF1FF" stroke="white" stroke-width="2"/>
<circle cx="52.4995" cy="284.5" r="12.5" fill="#ADF1FF" stroke="white" stroke-width="2"/>
<circle cx="13.5" cy="13.5" r="12.5" transform="matrix(-0.601029 0.799227 0.799227 0.601029 113.651 335.371)" fill="#ADF1FF" stroke="white" stroke-width="2"/>
<circle cx="13.5" cy="13.5" r="12.5" transform="matrix(-0.601029 0.799227 0.799227 0.601029 121.042 342.18)" fill="#ADF1FF" stroke="white" stroke-width="2"/>
<circle cx="13.5" cy="13.5" r="12.5" transform="matrix(-0.601029 0.799227 0.799227 0.601029 106.227 353.561)" fill="#ADF1FF" stroke="white" stroke-width="2"/>
<circle cx="13.5" cy="13.5" r="12.5" transform="matrix(-0.601029 0.799227 0.799227 0.601029 118.823 356.777)" fill="#ADF1FF" stroke="white" stroke-width="2"/>
<circle cx="13.5" cy="13.5" r="12.5" transform="matrix(-0.601029 0.799227 0.799227 0.601029 136.458 330)" fill="#ADF1FF" stroke="white" stroke-width="2"/>
<circle cx="945.5" cy="526.5" r="12.5" fill="#ADF1FF" stroke="white" stroke-width="2"/>
<circle cx="962.5" cy="517.5" r="12.5" fill="#ADF1FF" stroke="white" stroke-width="2"/>
<path d="M260.168 763.283C261.417 760.259 265.186 759.23 267.799 761.199L351.62 824.374C354.233 826.343 354.282 830.249 351.719 832.283L286.346 884.162C284.562 885.578 282.047 885.609 280.229 884.238L229.917 846.32C228.099 844.949 227.436 842.523 228.305 840.418L260.168 763.283Z" fill="#B6B6B6"/>
<path fill-rule="evenodd" clip-rule="evenodd" d="M364.071 840.617C364 840.816 364.036 841.048 364.182 841.222C368.62 846.471 372.217 849.828 375.125 851.9C378.03 853.971 380.278 854.782 382.009 854.894C383.758 855.008 384.939 854.406 385.681 853.75C386.047 853.427 386.301 853.095 386.464 852.843C386.546 852.716 386.606 852.608 386.647 852.529C386.667 852.49 386.682 852.458 386.693 852.434C386.697 852.426 386.699 852.419 386.702 852.413C387.315 851.24 387.476 850.128 387.234 849.092C386.992 848.059 386.364 847.16 385.51 846.383C383.815 844.84 381.121 843.676 378.278 842.799C372.568 841.039 365.97 840.354 364.677 840.232C364.374 840.203 364.15 840.398 364.071 840.617Z" fill="#6BCEFC"/>
<path fill-rule="evenodd" clip-rule="evenodd" d="M349.975 852.56C349.775 852.629 349.616 852.803 349.573 853.026C348.266 859.775 347.907 864.681 348.115 868.246C348.324 871.808 349.101 874.067 350.098 875.486C351.106 876.92 352.316 877.463 353.292 877.629C353.774 877.712 354.191 877.701 354.49 877.67C354.64 877.655 354.762 877.634 354.849 877.616C354.892 877.607 354.927 877.599 354.952 877.593C354.96 877.59 354.968 877.588 354.974 877.586C356.272 877.328 357.239 876.757 357.895 875.918C358.548 875.083 358.854 874.03 358.925 872.877C359.064 870.589 358.282 867.761 357.182 864.996C354.973 859.444 351.37 853.874 350.654 852.79C350.487 852.537 350.195 852.484 349.975 852.56Z" fill="#6BCEFC"/>
<path fill-rule="evenodd" clip-rule="evenodd" d="M383.887 876.456C383.688 876.525 383.529 876.699 383.486 876.922C382.179 883.671 381.819 888.577 382.028 892.142C382.236 895.703 383.014 897.962 384.011 899.382C385.019 900.816 386.229 901.358 387.205 901.525C387.686 901.607 388.104 901.597 388.403 901.566C388.553 901.55 388.675 901.529 388.761 901.512C388.804 901.503 388.839 901.495 388.864 901.489C388.873 901.486 388.881 901.484 388.887 901.482C390.185 901.224 391.152 900.652 391.807 899.814C392.46 898.978 392.767 897.926 392.837 896.773C392.977 894.485 392.194 891.657 391.094 888.892C388.886 883.34 385.283 877.77 384.567 876.686C384.4 876.433 384.107 876.38 383.887 876.456Z" fill="#6BCEFC"/>
<path fill-rule="evenodd" clip-rule="evenodd" d="M366.101 899.017C365.89 899.012 365.681 899.118 365.562 899.312C361.96 905.167 359.895 909.632 358.834 913.042C357.774 916.448 357.705 918.836 358.138 920.516C358.576 922.213 359.517 923.147 360.372 923.648C360.793 923.894 361.188 924.032 361.479 924.108C361.624 924.146 361.746 924.17 361.833 924.183C361.877 924.19 361.912 924.195 361.938 924.198C361.947 924.199 361.955 924.199 361.961 924.2C363.267 924.416 364.373 924.222 365.282 923.668C366.188 923.116 366.846 922.239 367.318 921.185C368.254 919.093 368.519 916.17 368.464 913.195C368.353 907.222 366.945 900.74 366.657 899.472C366.589 899.176 366.334 899.024 366.101 899.017Z" fill="#6BCEFC"/>
<path d="M352 832L260.5 763C261.5 759.5 266 759.5 268 761.5C295 781.167 350 823 353 825.5C355.576 827.647 352.5 832 352 832Z" fill="#6BCEFC"/>
<mask id="path-84-inside-1_104_106" fill="white">
<path d="M263.276 785.839C268.308 779.163 274.143 773.194 280.448 768.274C286.752 763.354 293.404 759.579 300.021 757.164C306.639 754.75 313.094 753.743 319.018 754.201C324.941 754.659 330.217 756.573 334.544 759.835C338.871 763.096 342.165 767.641 344.237 773.209C346.31 778.777 347.12 785.259 346.622 792.286C346.123 799.313 344.327 806.747 341.334 814.163C338.341 821.579 334.211 828.833 329.179 835.509L296.228 810.674L263.276 785.839Z"/>
</mask>
<path d="M263.276 785.839C268.308 779.163 274.143 773.194 280.448 768.274C286.752 763.354 293.404 759.579 300.021 757.164C306.639 754.75 313.094 753.743 319.018 754.201C324.941 754.659 330.217 756.573 334.544 759.835C338.871 763.096 342.165 767.641 344.237 773.209C346.31 778.777 347.12 785.259 346.622 792.286C346.123 799.313 344.327 806.747 341.334 814.163C338.341 821.579 334.211 828.833 329.179 835.509L296.228 810.674L263.276 785.839Z" stroke="#B6B6B6" stroke-width="10" mask="url(#path-84-inside-1_104_106)"/>
<circle cx="130" cy="151" r="10" fill="#5BA4D8"/>
<ellipse cx="173" cy="159.5" rx="11" ry="10.5" fill="#5BA4D8"/>
<ellipse cx="173" cy="159.5" rx="11" ry="10.5" fill="#5BA4D8"/>
<ellipse cx="173" cy="159.5" rx="11" ry="10.5" fill="#5BA4D8"/>
<circle cx="160.5" cy="185.5" r="12.5" fill="#5BA4D8"/>
<circle cx="65.4995" cy="357.5" r="12.5" fill="#5BA4D8"/>
<circle cx="52.4995" cy="387.5" r="12.5" fill="#5BA4D8"/>
<circle cx="78.4995" cy="401.5" r="12.5" fill="#5BA4D8"/>
<circle cx="70.4995" cy="433.5" r="12.5" fill="#5BA4D8"/>
<circle cx="115.5" cy="606.5" r="12.5" fill="#5BA4D8"/>
<circle cx="109.5" cy="639.5" r="12.5" fill="#5BA4D8"/>
<circle cx="357.5" cy="769.5" r="12.5" fill="#5BA4D8"/>
<path d="M676.016 937.69C676.016 944.593 670.419 950.19 663.516 950.19C656.612 950.19 651.016 944.593 651.016 937.69C651.016 930.786 656.612 925.19 663.516 925.19C670.419 925.19 676.016 930.786 676.016 937.69Z" fill="#5BA4D8"/>
<path d="M978 718.561C978 725.464 972.403 731.061 965.5 731.061C958.596 731.061 953 725.464 953 718.561C953 711.657 958.596 706.061 965.5 706.061C972.403 706.061 978 711.657 978 718.561Z" fill="#5BA4D8"/>
<path d="M961.75 691.061C961.75 697.964 956.153 703.561 949.25 703.561C942.346 703.561 936.75 697.964 936.75 691.061C936.75 684.157 942.346 678.561 949.25 678.561C956.153 678.561 961.75 684.157 961.75 691.061Z" fill="#5BA4D8"/>
<path d="M984.5 668.811C984.5 675.714 978.903 681.311 972 681.311C965.096 681.311 959.5 675.714 959.5 668.811C959.5 661.907 965.096 656.311 972 656.311C978.903 656.311 984.5 661.907 984.5 668.811Z" fill="#5BA4D8"/>
<path d="M961.75 691.061C961.75 697.964 956.153 703.561 949.25 703.561C942.346 703.561 936.75 697.964 936.75 691.061C936.75 684.157 942.346 678.561 949.25 678.561C956.153 678.561 961.75 684.157 961.75 691.061Z" fill="#5BA4D8"/>
<path d="M953 659.061C953 665.964 947.403 671.561 940.5 671.561C933.596 671.561 928 665.964 928 659.061C928 652.157 933.596 646.561 940.5 646.561C947.403 646.561 953 652.157 953 659.061Z" fill="#5BA4D8"/>
<path d="M953 659.061C953 665.964 947.403 671.561 940.5 671.561C933.596 671.561 928 665.964 928 659.061C928 652.157 933.596 646.561 940.5 646.561C947.403 646.561 953 652.157 953 659.061Z" fill="#5BA4D8"/>
<circle cx="664.5" cy="910" r="12.5" fill="#5BA4D8"/>
<circle cx="695.5" cy="920" r="12.5" fill="#5BA4D8"/>
<circle cx="695.5" cy="889" r="12.5" fill="#5BA4D8"/>
<circle cx="933.5" cy="452.5" r="12.5" fill="#5BA4D8"/>
<circle cx="944.5" cy="425.5" r="12.5" fill="#5BA4D8"/>
<circle cx="908.5" cy="180.5" r="12.5" fill="#5BA4D8"/>
<circle cx="893.5" cy="154.5" r="12.5" fill="#5BA4D8"/>
<circle cx="856.5" cy="167.5" r="12.5" fill="#5BA4D8"/>
<circle cx="577.5" cy="126.5" r="12.5" fill="#5BA4D8"/>
<ellipse cx="620.605" cy="145.143" rx="13.5" ry="24" transform="rotate(-54.0025 620.605 145.143)" fill="#5BA4D8"/>
<circle cx="843.5" cy="192.5" r="12.5" fill="#5BA4D8"/>
<circle cx="875.5" cy="187.5" r="12.5" fill="#5BA4D8"/>
<circle cx="359.5" cy="798.5" r="12.5" fill="#5BA4D8"/>
<circle cx="332.472" cy="780.004" r="12.5" fill="#5BA4D8"/>
<path d="M406.669 799.401C406.669 806.305 401.073 811.901 394.169 811.901C387.266 811.901 381.669 806.305 381.669 799.401C381.669 792.498 387.266 786.901 394.169 786.901C401.073 786.901 406.669 792.498 406.669 799.401Z" fill="#5BA4D8"/>
<circle cx="78.4995" cy="641.5" r="12.5" fill="#5BA4D8"/>
<circle cx="121.5" cy="178.5" r="12.5" fill="#5BA4D8"/>
<circle cx="413" cy="296" r="7" fill="white"/>
<circle cx="636" cy="297" r="7" fill="white"/>
<circle cx="396" cy="314" r="14" fill="white"/>
<circle cx="619" cy="315" r="14" fill="white"/>
<g filter="url(#filter3_f_104_106)">
<ellipse cx="642.5" cy="400.5" rx="34.5" ry="24.5" fill="#D0A8CB"/>
</g>
<g filter="url(#filter4_f_104_106)">
<ellipse cx="370.5" cy="401.5" rx="34.5" ry="24.5" fill="#D0A8CB"/>
</g>
<path d="M1002.34 914.321L888.074 895.009C888.074 895.009 854.365 953.35 878.197 965.986C902.029 978.622 1013.34 1002.89 990.404 984.95C967.468 967.013 1002.34 914.321 1002.34 914.321Z" fill="#BA8B5E"/>
<path d="M989.838 641.319L952.487 862.318" stroke="#A07047" stroke-width="6" stroke-linecap="round"/>
<path d="M888.074 895.009C889.87 884.38 897.625 875.205 909.632 869.504C921.64 863.803 936.916 862.041 952.101 864.608C967.285 867.174 981.134 873.858 990.601 883.188C1000.07 892.519 1004.38 903.732 1002.58 914.361L945.327 904.685L888.074 895.009Z" fill="#A5A4A8"/>
<rect width="6.96785" height="13.9357" rx="3.48392" transform="matrix(-0.986017 -0.166645 -0.166645 0.986017 957.084 856.028)" fill="#A5A4A8"/>
<mask id="mask3_104_106" style="mask-type:alpha" maskUnits="userSpaceOnUse" x="869" y="895" width="134" height="97">
<path d="M1002.34 914.321L888.074 895.009C888.074 895.009 854.365 953.35 878.197 965.986C902.029 978.622 1013.34 1002.89 990.404 984.95C967.468 967.013 1002.34 914.321 1002.34 914.321Z" fill="#BA8B5E"/>
</mask>
<g mask="url(#mask3_104_106)">
<path d="M974.749 992.102C967.28 969.176 979.157 930.863 988.296 911.947M951.115 988.108C943.646 965.181 955.523 926.869 964.662 907.953M927.154 982.855C919.685 959.928 930.09 922.571 939.229 903.655M903.585 974.775C900.209 953.12 907.122 918.689 916.261 899.773M897.991 896.685C891.549 916.805 877.151 960.906 883.093 968.956" stroke="#A07047" stroke-linecap="round"/>
</g>
<path d="M644.294 918.708C645.542 913.327 650.915 909.977 656.295 911.225L739.098 930.426C744.478 931.674 747.828 937.047 746.58 942.427C745.333 947.807 739.96 951.157 734.58 949.909L651.777 930.708C646.397 929.46 643.047 924.088 644.294 918.708ZM649.165 919.837C648.292 923.603 650.637 927.364 654.403 928.237C658.169 929.111 661.93 926.766 662.803 923C663.677 919.234 661.332 915.473 657.565 914.599C653.799 913.726 650.038 916.071 649.165 919.837Z" fill="#A07047"/>
<path d="M790.509 901.287C772.036 897.003 753.13 898.026 737.95 904.132C722.769 910.237 712.558 920.925 709.562 933.843C706.567 946.761 711.032 960.851 721.976 973.015C732.92 985.178 749.447 994.418 767.919 998.702L779.214 949.994L790.509 901.287Z" fill="#A07047"/>
<path d="M786.457 905.48C769.793 901.615 752.74 902.528 739.05 908.016C725.361 913.505 716.155 923.12 713.459 934.746C710.763 946.373 714.797 959.058 724.674 970.011C734.551 980.965 749.462 989.289 766.126 993.153L776.292 949.317L786.457 905.48Z" fill="#805938"/>
<path d="M761.633 997.036L784.129 900.024L787.587 900.609L790.996 901.4L768.406 998.815L764.51 997.911L761.633 997.036Z" fill="#B6B6B6"/>
<circle cx="663.348" cy="937.494" r="12.5" fill="#5BA4D8"/>
<path d="M858.533 943.65C853.94 930.32 848.229 939.958 845.668 947.204C845.525 947.61 845.135 947.884 844.705 947.892C838.359 948.018 838.707 949.825 840.934 951.656C841.788 952.357 841.253 954.347 840.187 954.633C836.585 955.597 838.076 958.463 840.074 960.555C840.504 961.006 840.476 961.733 840.034 962.173C836.54 965.657 842.738 966.452 847.126 966.404C847.598 966.399 848.011 966.719 848.159 967.167C849.573 971.443 852.485 969.835 855.112 966.859C855.873 965.998 858.308 966.906 858.638 968.007C859.489 970.854 862.156 970.529 864.318 969.501C864.904 969.222 865.628 969.494 865.908 970.08C868.634 975.787 872.729 965.79 874.716 959.132C874.847 958.693 875.269 958.398 875.727 958.398C886.878 958.391 878.484 950.114 872.167 945.421C871.754 945.113 871.638 944.543 871.879 944.087C876.113 936.085 866.445 940.44 860.039 944.22C859.476 944.552 858.746 944.268 858.533 943.65Z" fill="#A5A4A8" stroke="#A5A4A8" stroke-width="3"/>
<path d="M810.033 989.83C805.44 1003.16 799.729 993.522 797.168 986.276C797.025 985.87 796.635 985.597 796.205 985.588C789.859 985.462 790.207 983.655 792.434 981.824C793.288 981.123 792.753 979.133 791.687 978.847C788.085 977.883 789.576 975.017 791.574 972.925C792.004 972.474 791.976 971.748 791.534 971.307C788.04 967.823 794.238 967.029 798.626 967.076C799.098 967.081 799.511 966.761 799.659 966.313C801.073 962.037 803.985 963.645 806.612 966.621C807.373 967.482 809.808 966.574 810.138 965.473C810.989 962.626 813.656 962.952 815.818 963.979C816.404 964.258 817.128 963.986 817.408 963.4C820.134 957.693 824.229 967.69 826.216 974.348C826.347 974.787 826.769 975.082 827.227 975.082C838.378 975.089 829.984 983.366 823.667 988.06C823.254 988.367 823.138 988.937 823.379 989.393C827.613 997.395 817.945 993.041 811.539 989.261C810.976 988.928 810.246 989.212 810.033 989.83Z" fill="#A5A4A8" stroke="#A5A4A8" stroke-width="3"/>
<path d="M776.648 922.65C781.241 909.32 786.952 918.958 789.512 926.204C789.655 926.61 790.045 926.884 790.476 926.892C796.821 927.018 796.473 928.825 794.246 930.656C793.393 931.357 793.927 933.347 794.994 933.633C798.596 934.597 797.104 937.463 795.107 939.555C794.676 940.006 794.705 940.733 795.146 941.173C798.64 944.657 792.442 945.452 788.054 945.404C787.582 945.399 787.169 945.719 787.021 946.167C785.607 950.443 782.695 948.835 780.068 945.859C779.308 944.998 776.872 945.906 776.542 947.007C775.691 949.854 773.025 949.529 770.862 948.501C770.276 948.222 769.552 948.494 769.273 949.08C766.546 954.787 762.451 944.79 760.464 938.132C760.333 937.693 759.911 937.398 759.453 937.398C748.303 937.391 756.696 929.114 763.013 924.421C763.427 924.113 763.542 923.543 763.301 923.087C759.067 915.085 768.735 919.44 775.141 923.22C775.704 923.552 776.435 923.268 776.648 922.65Z" fill="#A5A4A8" stroke="#A5A4A8" stroke-width="3"/>
<rect width="49.2168" height="25.457" transform="matrix(-0.880806 -0.473478 -0.473478 0.880806 994.415 312.632)" fill="#D9D9D9"/>
<rect width="49.2168" height="18.1213" transform="matrix(-0.880806 -0.473478 -0.473478 0.880806 983.203 333.465)" fill="#4284EE"/>
<path d="M975.652 334.987L969.386 346.573" stroke="black"/>
<path d="M969.416 331.584L963.15 343.17" stroke="black"/>
<path d="M960.999 327.159L954.733 338.744" stroke="black"/>
<path d="M942.798 317.188L936.532 328.773" stroke="black"/>
<path d="M948.962 320.556L942.696 332.142" stroke="black"/>
<path d="M956.063 324.407L949.797 335.993" stroke="black"/>
<path d="M871.901 146.529L958.1 303.423" stroke="#D9D9D9" stroke-width="10" stroke-linecap="round"/>
<path d="M872.457 146.603L914.906 224.05" stroke="#4284EE" stroke-width="10" stroke-linecap="round"/>
<circle cx="965.5" cy="718.5" r="12.5" fill="#5BA4D8"/>
<defs>
<filter id="filter0_f_104_106" x="314.281" y="469.83" width="425.219" height="219.67" filterUnits="userSpaceOnUse" color-interpolation-filters="sRGB">
<feFlood flood-opacity="0" result="BackgroundImageFix"/>
<feBlend mode="normal" in="SourceGraphic" in2="BackgroundImageFix" result="shape"/>
<feGaussianBlur stdDeviation="6.5" result="effect1_foregroundBlur_104_106"/>
</filter>
<filter id="filter1_f_104_106" x="313.467" y="439.506" width="94.3047" height="138.083" filterUnits="userSpaceOnUse" color-interpolation-filters="sRGB">
<feFlood flood-opacity="0" result="BackgroundImageFix"/>
<feBlend mode="normal" in="SourceGraphic" in2="BackgroundImageFix" result="shape"/>
<feGaussianBlur stdDeviation="6.5" result="effect1_foregroundBlur_104_106"/>
</filter>
<filter id="filter2_f_104_106" x="636.496" y="446.462" width="75.5156" height="111.591" filterUnits="userSpaceOnUse" color-interpolation-filters="sRGB">
<feFlood flood-opacity="0" result="BackgroundImageFix"/>
<feBlend mode="normal" in="SourceGraphic" in2="BackgroundImageFix" result="shape"/>
<feGaussianBlur stdDeviation="6.5" result="effect1_foregroundBlur_104_106"/>
</filter>
<filter id="filter3_f_104_106" x="604" y="372" width="77" height="57" filterUnits="userSpaceOnUse" color-interpolation-filters="sRGB">
<feFlood flood-opacity="0" result="BackgroundImageFix"/>
<feBlend mode="normal" in="SourceGraphic" in2="BackgroundImageFix" result="shape"/>
<feGaussianBlur stdDeviation="2" result="effect1_foregroundBlur_104_106"/>
</filter>
<filter id="filter4_f_104_106" x="332" y="373" width="77" height="57" filterUnits="userSpaceOnUse" color-interpolation-filters="sRGB">
<feFlood flood-opacity="0" result="BackgroundImageFix"/>
<feBlend mode="normal" in="SourceGraphic" in2="BackgroundImageFix" result="shape"/>
<feGaussianBlur stdDeviation="2" result="effect1_foregroundBlur_104_106"/>
</filter>
<linearGradient id="paint0_linear_104_106" x1="152.903" y1="909.463" x2="152.93" y2="941.974" gradientUnits="userSpaceOnUse">
<stop offset="0.378265" stop-color="#76FFFD"/>
<stop offset="1" stop-color="#36ABA9"/>
</linearGradient>
</defs>
</svg>
